<?xml version="1.0" standalone="no"?>
<!DOCTYPE svg PUBLIC "-//W3C//DTD SVG 20010904//EN"
 "http://www.w3.org/TR/2001/REC-SVG-20010904/DTD/svg10.dtd">
<svg version="1.0" xmlns="http://www.w3.org/2000/svg"
 width="2000.000000pt" height="2000.000000pt" viewBox="0 0 2000.000000 2000.000000"
 preserveAspectRatio="xMidYMid meet">

<g transform="translate(0.000000,2000.000000) scale(0.100000,-0.100000)"
fill="#000000" stroke="none">
<path d="M9100 12891 l0 -479 -532 -5 c-542 -5 -594 -8 -793 -49 -218 -44
-447 -139 -630 -260 -443 -293 -723 -843 -752 -1473 -19 -415 106 -808 342
-1078 l76 -88 -59 -63 c-163 -174 -288 -437 -339 -709 -21 -113 -23 -435 -4
-577 62 -466 221 -815 496 -1095 269 -273 643 -439 1094 -485 64 -6 500 -10
1167 -10 l1064 0 0 500 0 500 398 0 c427 1 639 10 797 35 680 109 1162 512
1374 1150 68 204 111 467 111 680 0 381 -140 768 -365 1009 -25 26 -45 51 -45
55 1 3 28 38 61 76 248 287 363 635 345 1045 -15 345 -85 637 -214 895 -40 81
-125 222 -141 235 -3 3 -26 31 -50 63 -61 80 -224 233 -310 291 -166 111 -354
194 -556 245 -264 66 -229 64 -1437 68 l-1098 4 0 -480z m2025 -1169 c92 -42
143 -114 152 -210 10 -111 -57 -208 -174 -252 -51 -19 -78 -20 -463 -20 l-410
0 0 255 0 256 423 -3 c416 -3 423 -3 472 -26z m-2025 -1207 l0 -265 -389 0
c-397 0 -458 5 -535 40 -77 35 -146 141 -146 225 0 47 33 128 67 166 83 92
114 97 601 98 l402 1 0 -265z m2040 -890 c194 -107 183 -358 -20 -454 l-55
-26 -417 -3 -418 -3 0 261 0 261 428 -3 427 -3 55 -30z m-2040 -1216 l0 -260
-432 3 c-428 3 -434 3 -479 26 -122 61 -179 178 -144 297 26 92 111 166 215
186 19 4 216 7 438 8 l402 1 0 -261z"/>
<path d="M11264 7249 c-20 -22 -13 -43 19 -63 19 -12 43 -1 61 27 12 19 -17
57 -44 57 -9 0 -25 -9 -36 -21z"/>
<path d="M10530 6944 l0 -306 148 4 c157 5 199 15 239 59 69 77 33 227 -59
246 -30 6 -39 23 -12 23 9 0 31 15 50 34 29 29 34 41 34 83 0 65 -27 112 -80
140 -39 21 -57 23 -182 23 l-138 0 0 -306z m301 217 c22 -22 29 -39 29 -68 0
-80 -53 -113 -180 -113 l-80 0 0 105 0 105 101 0 c98 0 101 -1 130 -29z m-2
-256 c16 -8 36 -31 46 -51 15 -31 15 -43 6 -75 -19 -62 -51 -72 -213 -70 l-68
1 0 105 0 105 100 0 c69 0 110 -5 129 -15z"/>
<path d="M11860 6945 l0 -305 35 0 35 0 0 155 c0 173 8 203 60 230 16 8 42 15
57 15 38 0 91 -34 98 -62 2 -13 6 -93 7 -178 l3 -155 33 -3 32 -3 0 171 c0
122 -4 180 -14 204 -39 93 -169 115 -243 41 l-33 -33 0 114 0 114 -35 0 -35 0
0 -305z"/>
<path d="M12520 6944 l0 -306 153 4 c139 3 156 6 196 28 108 61 109 223 1 268
-22 10 -40 19 -40 22 0 3 15 14 34 24 43 23 61 57 60 117 0 35 -7 56 -27 82
-44 58 -76 67 -236 67 l-141 0 0 -306z m285 234 c49 -22 68 -85 41 -136 -23
-44 -58 -57 -160 -57 l-91 0 -3 103 -3 102 95 0 c52 0 107 -5 121 -12z m15
-273 c40 -20 60 -53 60 -95 0 -41 -22 -78 -55 -90 -12 -5 -69 -10 -126 -11
l-104 -3 -3 107 -3 107 101 0 c70 0 110 -5 130 -15z"/>
<path d="M12317 7204 c-4 -4 -7 -31 -7 -61 l0 -53 -35 0 c-31 0 -35 -3 -35
-25 0 -22 4 -25 34 -25 l35 0 3 -170 c3 -169 3 -170 30 -196 21 -21 39 -28 83
-32 l57 -5 -4 29 c-3 25 -8 29 -38 32 -59 6 -60 9 -60 183 l0 159 45 0 c41 0
45 2 45 25 0 23 -4 25 -45 25 l-44 0 -3 58 c-3 53 -5 57 -28 60 -14 2 -29 0
-33 -4z"/>
<path d="M13468 7153 c-3 -57 -3 -58 -35 -61 -27 -3 -33 -8 -33 -27 0 -19 6
-24 33 -27 l32 -3 5 -170 c3 -93 9 -176 14 -184 13 -21 71 -41 117 -41 33 0
40 3 35 16 -3 9 -6 22 -6 30 0 10 -12 14 -40 14 -55 0 -61 20 -58 194 l3 141
48 3 c42 3 47 6 47 27 0 21 -5 24 -47 27 l-48 3 -3 58 c-3 56 -4 57 -32 57
-28 0 -29 -1 -32 -57z"/>
<path d="M11136 7081 c-16 -11 -35 -30 -42 -43 -13 -22 -13 -21 -14 15 0 36
-1 37 -35 37 l-35 0 0 -225 0 -225 35 0 35 0 0 158 c0 138 2 161 20 189 20 34
82 59 114 47 13 -5 16 1 16 30 0 34 -2 36 -32 36 -18 0 -46 -9 -62 -19z"/>
<path d="M11522 7093 c-37 -7 -108 -83 -121 -128 -16 -58 -14 -158 5 -203 27
-70 92 -112 169 -112 52 0 110 26 121 55 13 34 24 11 24 -50 0 -57 -3 -68 -28
-96 -24 -27 -37 -33 -84 -37 -60 -5 -109 13 -130 48 -11 17 -14 17 -40 4 -15
-8 -28 -18 -28 -23 0 -15 69 -70 98 -78 15 -4 54 -8 87 -8 78 0 138 26 168 74
21 34 22 47 25 294 l3 257 -35 0 c-35 0 -36 -1 -36 -37 l0 -38 -31 33 c-46 49
-88 60 -167 45z m127 -67 c42 -22 63 -62 69 -131 9 -116 -38 -185 -124 -185
-74 0 -114 32 -133 107 -21 82 11 181 69 210 33 17 85 16 119 -1z"/>
<path d="M13122 7089 c-44 -13 -106 -78 -120 -127 -21 -69 -15 -162 13 -218
74 -148 290 -146 358 5 30 65 29 180 -1 237 -48 93 -145 133 -250 103z m157
-83 c73 -70 64 -241 -15 -293 -33 -21 -100 -24 -136 -4 -94 49 -96 255 -4 313
44 28 117 20 155 -16z"/>
<path d="M13762 7092 c-73 -22 -118 -100 -92 -162 18 -43 55 -66 146 -90 110
-29 137 -63 91 -116 -32 -37 -108 -44 -154 -15 -18 12 -33 28 -33 36 0 17 -55
22 -65 5 -10 -17 24 -67 62 -91 46 -29 150 -32 200 -6 66 35 94 100 69 160
-17 42 -44 58 -154 87 -84 23 -102 37 -102 79 0 39 35 61 94 61 48 0 57 -3 79
-30 25 -30 50 -37 74 -22 20 13 -20 68 -66 92 -40 20 -102 25 -149 12z"/>
<path d="M11270 6865 l0 -225 30 0 30 0 0 225 0 225 -30 0 -30 0 0 -225z"/>
</g>
</svg>
