<?xml version="1.0" standalone="no"?>
<!DOCTYPE svg PUBLIC "-//W3C//DTD SVG 20010904//EN"
 "http://www.w3.org/TR/2001/REC-SVG-20010904/DTD/svg10.dtd">
<svg version="1.0" xmlns="http://www.w3.org/2000/svg"
 width="2000.000000pt" height="2000.000000pt" viewBox="0 0 2000.000000 2000.000000"
 preserveAspectRatio="xMidYMid meet">

<g transform="translate(0.000000,2000.000000) scale(0.100000,-0.100000)"
fill="#000000" stroke="none">
<path d="M9060 12761 l0 -459 -482 -5 c-465 -4 -488 -6 -623 -30 -510 -94
-882 -336 -1125 -732 -238 -387 -333 -947 -234 -1385 51 -226 164 -452 299
-598 30 -33 55 -62 55 -65 0 -4 -25 -35 -57 -69 -106 -118 -196 -272 -253
-433 -55 -156 -71 -252 -77 -452 -11 -368 50 -676 192 -970 78 -163 162 -280
295 -414 205 -206 426 -329 720 -403 250 -62 170 -59 1345 -65 594 -3 1086 -4
1093 -2 9 2 12 107 12 481 l0 478 488 5 c444 4 497 6 602 26 369 69 645 207
881 441 335 333 515 828 496 1363 -13 362 -121 653 -329 890 l-60 67 57 63
c147 161 256 382 310 627 22 102 31 375 16 525 -70 717 -432 1231 -1021 1449
-123 45 -180 61 -315 85 -199 37 -340 41 -1326 41 l-959 0 0 -459z m1930
-1120 c96 -50 142 -118 142 -210 1 -99 -52 -180 -144 -222 -52 -24 -59 -24
-410 -27 l-358 -3 0 246 0 246 363 -3 c358 -3 362 -3 407 -27z m-1935 -1151
l0 -245 -344 -3 c-285 -2 -354 0 -397 13 -245 71 -253 383 -12 466 48 17 86
18 403 16 l350 -2 0 -245z m1933 -839 c131 -59 183 -207 117 -330 -28 -52 -70
-87 -140 -118 -35 -16 -80 -18 -392 -21 l-353 -3 0 251 0 251 358 -3 c351 -3
358 -3 410 -27z m-1930 -1168 l2 -243 -23 -5 c-13 -4 -177 -5 -363 -3 -386 5
-400 7 -479 83 -84 82 -95 207 -25 302 33 45 109 90 172 102 24 5 194 8 378 7
l335 -1 3 -242z"/>
<path d="M11206 7384 c-9 -8 -16 -20 -16 -25 0 -12 37 -49 50 -49 13 0 50 37
50 49 0 16 -31 41 -50 41 -10 0 -26 -7 -34 -16z"/>
<path d="M10508 7384 c-5 -4 -8 -138 -8 -297 l0 -289 148 4 c132 3 151 6 189
27 57 33 77 73 71 144 -5 63 -22 88 -77 117 l-35 17 32 17 c62 32 82 124 39
186 -40 61 -73 72 -220 77 -73 3 -135 2 -139 -3z m237 -64 c22 -5 48 -19 58
-31 25 -31 22 -92 -7 -126 -23 -27 -29 -28 -125 -31 l-101 -4 0 94 c0 52 3 98
7 101 9 10 121 8 168 -3z m65 -285 c39 -40 46 -81 21 -122 -26 -41 -75 -55
-179 -51 l-77 3 -3 103 -3 104 105 -4 c102 -3 107 -4 136 -33z"/>
<path d="M11777 7383 c-4 -3 -7 -136 -7 -295 l0 -288 34 0 35 0 3 161 3 161
33 29 c64 57 153 29 172 -56 5 -22 10 -97 10 -167 l0 -128 30 0 30 0 0 163 c0
183 -8 214 -69 254 -58 39 -125 30 -183 -25 l-28 -26 0 112 0 112 -28 0 c-16
0 -32 -3 -35 -7z"/>
<path d="M12410 7095 l0 -297 148 4 c124 3 154 7 182 23 48 29 72 67 76 122 6
66 -19 112 -74 140 l-43 21 27 14 c65 32 87 121 47 190 -33 56 -81 72 -230 76
l-133 4 0 -297z m230 226 c73 -15 107 -72 79 -134 -19 -42 -59 -57 -153 -57
l-86 0 0 100 0 100 58 0 c31 -1 77 -5 102 -9z m67 -277 c56 -42 53 -136 -5
-164 -15 -7 -71 -15 -124 -18 l-98 -4 0 107 0 107 99 -4 c82 -2 105 -7 128
-24z"/>
<path d="M12208 7288 c-3 -52 -4 -53 -35 -56 -27 -3 -33 -8 -33 -27 0 -19 6
-24 33 -27 l32 -3 5 -163 5 -164 28 -24 c36 -31 127 -36 127 -6 0 28 -13 40
-43 40 -48 -1 -52 11 -52 170 l0 147 43 3 c37 3 42 6 42 27 0 21 -5 24 -42 27
l-43 3 -3 53 c-3 50 -4 52 -32 52 -28 0 -29 -2 -32 -52z"/>
<path d="M13308 7288 c-3 -52 -4 -53 -35 -56 -27 -3 -33 -8 -33 -27 0 -19 6
-24 33 -27 l32 -3 5 -162 c5 -150 7 -164 27 -184 28 -29 133 -41 133 -16 0 34
-12 47 -46 47 -48 0 -55 25 -52 184 l3 131 43 3 c37 3 42 6 42 27 0 21 -5 24
-42 27 l-43 3 -3 53 c-3 50 -4 52 -32 52 -28 0 -29 -2 -32 -52z"/>
<path d="M11095 7229 c-11 -6 -30 -23 -42 -38 l-23 -26 0 33 c0 29 -3 32 -30
32 l-30 0 0 -215 0 -215 30 0 30 0 0 148 c0 97 5 155 13 172 16 32 74 62 110
57 25 -3 27 -1 27 30 0 31 -2 33 -32 33 -18 0 -42 -5 -53 -11z"/>
<path d="M11440 7229 c-118 -47 -158 -244 -73 -358 31 -40 77 -61 138 -61 53
0 78 11 112 49 l24 26 -3 -73 c-5 -96 -22 -114 -111 -120 -59 -4 -66 -2 -98
26 -26 23 -39 28 -55 21 -35 -13 -36 -25 -4 -56 87 -81 261 -67 315 27 19 32
20 52 20 275 l0 240 -32 3 c-32 3 -33 2 -33 -34 l0 -37 -21 27 c-40 51 -115
70 -179 45z m149 -74 c38 -33 54 -83 49 -154 -7 -104 -76 -158 -163 -129 -53
18 -78 55 -83 127 -8 112 39 181 123 181 32 0 51 -7 74 -25z"/>
<path d="M12964 7221 c-103 -47 -146 -197 -90 -317 27 -58 62 -87 125 -104 52
-14 117 -1 164 32 63 45 94 171 67 270 -31 110 -159 167 -266 119z m150 -62
c41 -32 59 -77 59 -144 0 -97 -40 -154 -115 -162 -85 -8 -141 57 -141 167 0
96 51 160 128 160 28 0 51 -7 69 -21z"/>
<path d="M13575 7226 c-53 -24 -80 -62 -80 -113 0 -38 5 -49 32 -73 18 -16 50
-34 73 -40 22 -5 58 -15 80 -20 105 -28 75 -130 -38 -130 -43 0 -92 31 -92 57
0 12 -7 14 -32 9 -42 -8 -42 -9 -23 -46 52 -100 250 -102 304 -3 14 28 14 94
-2 114 -21 27 -60 47 -127 64 -86 22 -110 38 -110 75 0 37 34 61 87 62 44 0
80 -18 89 -45 5 -15 12 -17 32 -12 15 4 29 9 32 11 8 9 -24 56 -52 77 -35 26
-130 33 -173 13z"/>
<path d="M11210 7015 l0 -215 30 0 30 0 0 215 0 215 -30 0 -30 0 0 -215z"/>
</g>
</svg>
